# xmcd CD database file
#
# Track frame offsets:
#	150
#	4224
#	34303
#	63468
#	93657
#	115987
#	140823
#	168620
#
# Disc length: 2647 seconds
#
# Revision: 1
# Processed by: cddbd v1.5.1PL0 Copyright (c) Steve Scherf et al.
# Submitted via: CDex 1.51
#
DISCID=750a5508
DTITLE=luvtrax - TIME FOR HOOVER
DYEAR=2005
DGENRE=Hard House
TTITLE0=TIME FOR HOOVER
TTITLE1=Hard reset
TTITLE2=Cold start
TTITLE3=no time (part.1)
TTITLE4=no time (part.2)
TTITLE5=inferno
TTITLE6=funky thumpin' (live mix)
TTITLE7=deadz screaming in da hall (live mix)
EXTD=YEAR: 2005
EXTT0=
EXTT1=
EXTT2=
EXTT3=
EXTT4=
EXTT5=
EXTT6=
EXTT7=
PLAYORDER=
